<svg width="20" height="20" viewBox="0 0 20 20" fill="none" xmlns="http://www.w3.org/2000/svg">
<rect width="20" height="20" rx="4" fill="#FFE694"/>
<path d="M3.35 12.81V8.19H4.64V12.81H3.35ZM1.62 11.11V9.89H6.38V11.11H1.62ZM8.24148 14V7.6L8.94148 8.3H6.84148V7H9.86148V14H8.24148ZM13.9775 14.12C13.3908 14.12 12.8775 14.0333 12.4375 13.86C11.9975 13.68 11.6542 13.43 11.4075 13.11C11.1608 12.7833 11.0375 12.4033 11.0375 11.97C11.0375 11.5367 11.1575 11.17 11.3975 10.87C11.6442 10.5633 11.9875 10.3333 12.4275 10.18C12.8675 10.02 13.3842 9.94 13.9775 9.94C14.5775 9.94 15.0975 10.02 15.5375 10.18C15.9842 10.3333 16.3275 10.5633 16.5675 10.87C16.8142 11.17 16.9375 11.5367 16.9375 11.97C16.9375 12.4033 16.8142 12.7833 16.5675 13.11C16.3208 13.43 15.9742 13.68 15.5275 13.86C15.0875 14.0333 14.5708 14.12 13.9775 14.12ZM13.9775 12.93C14.3842 12.93 14.7042 12.84 14.9375 12.66C15.1775 12.48 15.2975 12.2333 15.2975 11.92C15.2975 11.6067 15.1775 11.3633 14.9375 11.19C14.7042 11.01 14.3842 10.92 13.9775 10.92C13.5775 10.92 13.2608 11.01 13.0275 11.19C12.7942 11.3633 12.6775 11.6067 12.6775 11.92C12.6775 12.2333 12.7942 12.48 13.0275 12.66C13.2608 12.84 13.5775 12.93 13.9775 12.93ZM13.9775 10.76C13.4375 10.76 12.9642 10.6867 12.5575 10.54C12.1575 10.3933 11.8442 10.18 11.6175 9.9C11.3975 9.61333 11.2875 9.27333 11.2875 8.88C11.2875 8.46667 11.4008 8.11333 11.6275 7.82C11.8542 7.52 12.1708 7.29 12.5775 7.13C12.9842 6.96333 13.4508 6.88 13.9775 6.88C14.5175 6.88 14.9875 6.96333 15.3875 7.13C15.7942 7.29 16.1108 7.52 16.3375 7.82C16.5708 8.11333 16.6875 8.46667 16.6875 8.88C16.6875 9.27333 16.5742 9.61333 16.3475 9.9C16.1275 10.18 15.8142 10.3933 15.4075 10.54C15.0008 10.6867 14.5242 10.76 13.9775 10.76ZM13.9775 9.81C14.3175 9.81 14.5842 9.73333 14.7775 9.58C14.9775 9.42667 15.0775 9.21667 15.0775 8.95C15.0775 8.67 14.9742 8.45333 14.7675 8.3C14.5675 8.14667 14.3042 8.07 13.9775 8.07C13.6575 8.07 13.3975 8.14667 13.1975 8.3C12.9975 8.45333 12.8975 8.67 12.8975 8.95C12.8975 9.21667 12.9942 9.42667 13.1875 9.58C13.3808 9.73333 13.6442 9.81 13.9775 9.81Z" fill="black"/>
</svg>
